<svg xmlns="http://www.w3.org/2000/svg" viewBox="0 0 57.64 53.79"><path d="M57.64 53.82H0l2.82-4.64h54zm-40.82-6.18h-13l2.84-4.61h13.02zm32.7-6.14l-.83-4.61h5.79l.84 4.61zm-1.1-6.15l-.86-4.61h5.77l.85 4.61zM28.13 29.2H15.06l2.85-4.61h13.06zm3.76-6.15H18.82l2.84-4.61h13.08zm6.56-10.75l-2.79 4.61H22.6l2.84-4.61m.92-1.54l2.84-4.61h13.08l-2.83 4.61zm3.77-6.15L32.97 0h14.6l.85 4.61zm16 18.44l-.94-4.61h5.82l.84 4.61zm1 6.15l-.8-4.61h5.79l.85 4.61zm3.5 18.44l-.81-4.61h5.79l.85 4.61zM11.3 35.35l2.84-4.61H27.2l-2.83 4.61zM7.53 41.5l2.85-4.61h13.05L20.6 41.5zm37.43-24.59l-.94-4.61h5.8l.85 4.61zm-1.14-6.15l-.93-4.61h5.83l.85 4.61z" fill="#99469a"/></svg>