<svg version="1.1" id="Layer_1" xmlns="http://www.w3.org/2000/svg" x="0" y="0" viewBox="0 0 100 100" xml:space="preserve"><style>.st0{stroke:#99469a;stroke-width:2;stroke-miterlimit:10}.st0,.st1{fill:none}.st2{fill:#99469a}</style><path class="st0" d="M13.98 82.71V30.13h61.23l10.22 10.71.02 41.87z"/><path class="st0" d="M75.29 30.13v10.25l10.14-.12"/><path class="st1" d="M74.29 41.34c-3.84-.91-14.57 4.93-14.57 4.93L27.51 64.78l-7.07-1.91-4.64 2.66 4.07 7.08"/><path class="st1" d="M74.29 41.34c-1.14 3.77-11.59 10.1-11.59 10.1L30.48 69.95l-1.91 7.07-4.64 2.66-4.07-7.08"/><path class="st2" d="M27.23 64.7l-8.95 5.15L17.22 68l7.1-4.08zM73.73 41.26L19.7 72.31l-1.06-1.85 48.55-27.89c-.01 0 4.13-1.73 6.54-1.31zM69.78 46.81L21.11 74.77l-1.06-1.85 54.04-31.05c-.57 2.12-4.31 4.94-4.31 4.94zM29.62 73.16l-7.09 4.08-1.06-1.85 8.93-5.14zM28.57 77.02l-4.63 2.68-1.06-1.85 6.47-3.72zM23.35 63.66l-6.48 3.72-1.07-1.85 4.64-2.66z"/></svg>