<svg xmlns="http://www.w3.org/2000/svg" viewBox="-10 0 110 23.84"><defs><style>.a{fill:none}.b{fill:#99469a}</style></defs><path class="a" d="M91.62 12.22c-4.18-3.95-22-4.43-22-4.43l-54.2-.18L7.89.03H.09L.04 11.92M91.62 12.22c-4.21 3.93-22 4.28-22 4.28l-54.2-.19-7.61 7.53H0v-11.9"/><path class="b" d="M15.11 7.31L.06 7.25l.01-3.1 11.95.04 3.09 3.12zM90.97 11.71L.05 11.4V8.29l81.69.28s6.49.85 9.23 3.14zM81.92 15.83L.03 15.54v-3.11l90.93.32c-2.25 2.25-9.04 3.08-9.04 3.08zM11.94 19.73L.01 19.69l.02-3.11 15.03.05-3.12 3.1zM7.8 23.84H0l.01-3.11 10.89.04-3.1 3.07zM10.98 3.15L.07 3.11.08 0l7.8.03 3.1 3.12z"/></svg>
