<svg xmlns="http://www.w3.org/2000/svg" viewBox="10 60 197 97">
<filter id="drop-shadow" x="0" y="0">
  <feFlood flood-color="#392759" result="COLOR"></feFlood>
  <feConvolveMatrix in="SourceAlpha" kernelMatrix="1 0 0 1" order="2,2" result="BEVEL"></feConvolveMatrix>
  <feOffset in="BEVEL" dx=".5" dy="1" result="OFFSET"></feOffset>
  <feComposite in="COLOR" in2="OFFFSET" operator="in" result="DROPSHADOW"></feComposite>
  <feMerge><feMergeNode in="DROPSHADOW"></feMergeNode><feMergeNode in="SourceGraphic"></feMergeNode></feMerge>
</filter>
<path filter="url(#drop-shadow)" fill="#B51CCC" d="M103.65 137.83h3.77l.26-1.26h-3.77zM148.59 139.84h2.14l-.5-2.68zM26.65 137.83h3.77l.26-1.26h-3.77zM112.61 141.85h3.77l1.12-5.28h-3.77zM102.79 141.85h3.77l.48-2.26h-3.77zM171.69 141.85h3.77l1.12-5.28h-3.77z"/>
<path filter="url(#drop-shadow)" fill="#B51CCC" d="M199.24 130.99c-2.97-12.97-13.11-63.17-13.11-63.17h-23.7l-29.59 46.86-28.79-.33 8.5-40.97s.73-5.56-4.19-5.56H33.63L16.4 148.19s125.99-.36 172.08-.36c4.37-.01 13.04-6.87 10.76-16.84zm-8.27-6.66h-6.28l-.9-4.99h6.27l.91 4.99zm-1.25-6.66h-6.28l-.9-4.99h6.26l.92 4.99zm-1.25-6.65h-6.24l-.93-4.99h6.26l.91 4.99zm-1.25-6.66h-6.32l-.86-4.99h6.27l.91 4.99zm-1.25-6.65h-6.2l-1.01-4.99h6.3l.91 4.99zm-1.28-6.66h-6.2l-1.01-4.99h6.3l.91 4.99zm-1.21-6.66h-6.2l-1.01-4.99h6.3l.91 4.99zm-17.97-11.64h15.81l.92 4.99h-19.8l3.07-4.99zm-4.08 6.65h14.15l-3.06 4.99h-14.17l3.08-4.99zm-4.08 6.66h14.09l-3.03 4.99h-14.14l3.08-4.99zm-4.08 6.65h14.14l-3.08 4.99H150.2l3.07-4.99zm-4.07 6.66h14.14l-3.08 4.99h-14.14l3.08-4.99zm-4.08 6.66h14.14l-3.06 4.99h-14.15l3.07-4.99zm-4.08 6.65h14.13l-3.06 4.99h-14.15l3.08-4.99zm-4.07 6.66h14.14l-3.08 4.99h-14.14l3.08-4.99zm-6.33 0l-1.08 4.99H83.97c0-.39.03-.67.08-.83 0-.11.01-.24.04-.37.03-.14.04-.29.04-.46l.75-3.33h45.76zM84.63 89.39c0 .22-.06.5-.17.83-.06.11-.11.24-.17.37-.06.14-.11.29-.17.46h-12.3l1.08-4.99h12.48l-.75 3.33zm1.67 23.29h12.48l-1.08 4.99H85.22l1.08-4.99zm8.48-39.93h12.48l-1.08 4.99H93.7l1.08-4.99zm-1.41 6.65h12.48l-1.08 4.99H92.29l1.08-4.99zm-1.41 6.66h12.48l-1.08 4.99H90.87l1.09-4.99zm-1.42 6.65h12.48l-1.08 4.99H89.46l1.08-4.99zm-1.41 6.66h12.48l-1.08 4.99H88.05l1.08-4.99zm11.06 6.66l-1.08 4.99H86.63l1.08-4.99h12.48zm-61.9-33.28h41.6c3.72 0 5.91 1.66 6.57 4.99H37.21l1.08-4.99zm-1.41 6.65h49.75c0 .17-.01.32-.04.46s-.04.26-.04.37c0 .11-.01.24-.04.37-.03.14-.04.29-.04.46l-.75 3.33H35.8l1.08-4.99zm-1.42 6.66h12.48l-1.08 4.99H34.38l1.08-4.99zm-1.41 6.65H83.3c-2.11 3.33-5.02 4.99-8.74 4.99h-41.6l1.09-4.99zm-1.42 6.66h41.6c3.72 0 5.91 1.66 6.57 4.99H31.55l1.08-4.99zm32.12 24.96l1.08-4.99h12.48l-1.08 4.99H64.75zm12.15 1.66l-1.08 4.99H63.34l1.08-4.99H76.9zm-10.74-8.32l1.08-4.99h12.48l-1.08 4.99H66.16zm-36.36-4.99h12.48l-1.08 4.99H28.72l1.08-4.99zm-1.41 6.66h12.48l-1.08 4.99H27.31l1.08-4.99zm-1.41 6.65h12.48l-1.08 4.99H25.89l1.09-4.99zm5.72 9.95c0 .04-.01.08-.02.13l-.3 1.38c-.08.34-.26.64-.56.89-.29.24-.61.36-.95.36.3 0 .55.1.73.29.19.19.28.44.28.73 0 .03 0 .07-.01.11 0 .04-.01.08-.02.13l-.78 3.64h-1.88l.85-4.02h-3.77l-.85 4.02h-1.88l1.87-8.79h6.28c.3 0 .55.1.73.29.19.19.28.44.28.73v.11zm9.84 0c0 .04-.01.08-.02.13l-1.34 6.28c-.07.34-.25.64-.55.89-.31.24-.63.36-.97.36h-5.02c-.3 0-.55-.1-.74-.3a1.004 1.004 0 01-.27-.84c0-.04.01-.08.02-.12l1.34-6.28c.07-.34.25-.64.55-.88.3-.25.62-.38.97-.38h5.02c.3 0 .55.1.74.29.19.19.28.44.28.73 0 .04 0 .08-.01.12zm-12.4-24.92l1.08-4.99H43.7l-1.08 4.99H30.14zm21.48 25.55H46.6l-1.12 5.27h5.02l-.38 1.76h-5.65c-.3 0-.55-.1-.73-.3a1.004 1.004 0 01-.27-.84c0-.04.01-.08.02-.12l1.34-6.28c.07-.34.25-.64.55-.88.3-.25.62-.38.97-.38H52l-.38 1.77zm8.74 7.03h-2.39l-1.42-2.76-2.6 2.76h-1.88l1.87-8.79h1.88l-1.18 5.51 5.2-5.51h2.39l-4.14 4.4 2.27 4.39zm10.6-7.03h-5.02l-.26 1.26h5.02l-.38 1.76H65.3l-.48 2.26h5.02l-.38 1.76h-5.65c-.3 0-.55-.1-.73-.3a1.004 1.004 0 01-.27-.84c0-.04.01-.08.02-.12l1.34-6.28c.07-.34.25-.64.55-.88.3-.25.62-.38.97-.38h5.65l-.38 1.76zm9.2 0h-2.7l-1.49 7.03h-1.88l1.49-7.03h-2.95l.38-1.76h7.54l-.39 1.76zm.69-29.34c-.03.14-.04.29-.04.46l-.75 3.33H67.58l1.08-4.99h12.31c0 .17-.01.32-.04.46s-.04.26-.04.37c0 .11-.01.24-.04.37zm6.75 36.37h-5.65c-.3 0-.55-.1-.73-.3a1.004 1.004 0 01-.27-.84c0-.04.01-.08.02-.12l1.61-7.54h1.88l-1.49 7.03h5.02l-.39 1.77zm8.8 0l-.38-2.01h-3.54l-1.23 2.01h-2.13l5.39-8.79h2.39l1.64 8.79H96.4zm13.29-7.66c0 .04-.01.08-.02.13l-.3 1.38c-.08.34-.26.64-.57.89-.29.24-.61.36-.95.36.3 0 .55.1.74.29.19.19.28.44.28.73 0 .03 0 .07-.01.11 0 .04-.01.08-.02.13l-.51 2.39c-.07.34-.25.64-.55.89-.31.24-.63.36-.97.36h-6.28l1.87-8.79h6.28c.3 0 .55.1.74.29.19.19.28.44.28.73 0 .03 0 .07-.01.11zm9.82 0c0 .04-.01.08-.02.13l-1.34 6.28c-.07.34-.25.64-.55.89-.31.24-.63.36-.97.36h-6.28l1.87-8.79h6.28c.3 0 .55.1.74.29.19.19.28.44.28.73 0 .03 0 .07-.01.11zm9.07.63h-5.02l-.26 1.26h5.02l-.38 1.76h-5.02l-.48 2.26h5.02l-.38 1.76h-5.65c-.3 0-.55-.1-.73-.3a1.004 1.004 0 01-.27-.84c0-.04.01-.08.02-.12l1.34-6.28c.07-.34.25-.64.55-.88.3-.25.62-.38.97-.38h5.65l-.38 1.76zm-.43-5.58H90.71c-3.72 0-5.91-1.66-6.57-4.99h45.1l-1.09 4.99zm7.84 12.61h-5.65c-.3 0-.55-.1-.73-.3a1.004 1.004 0 01-.27-.84c0-.04.01-.08.02-.12l1.61-7.54h1.88l-1.49 7.03h5.02l-.39 1.77zm5.04 0h-1.88l1.49-7.03h-2.95l.38-1.76h7.53l-.38 1.76h-2.7l-1.49 7.03zm10.4 0l-.38-2.01h-3.54l-1.23 2.01h-2.13l5.39-8.79h2.39l1.64 8.79h-2.14zm7.2 0h-1.88l.38-1.76h1.88l-.38 1.76zm10.36-7.03h-5.02l-1.12 5.27h5.02l-.38 1.76h-5.65c-.3 0-.55-.1-.73-.3a1.004 1.004 0 01-.27-.84c0-.04.01-.08.02-.12l1.34-6.28c.07-.34.25-.64.55-.88.3-.25.62-.38.97-.38h5.65l-.38 1.77zm9.6-.63c0 .04-.01.08-.02.13l-1.34 6.28c-.07.34-.25.64-.55.89-.31.24-.63.36-.97.36h-5.02c-.3 0-.55-.1-.74-.3a1.004 1.004 0 01-.27-.84c0-.04.01-.08.02-.12l1.34-6.28c.07-.34.25-.64.55-.88.3-.25.62-.38.97-.38h5.02c.3 0 .55.1.74.29.19.19.28.44.28.73 0 .04 0 .08-.01.12zm10.24 7.66h-1.88l.93-4.4-3.06 4.4h-1.51l-1.21-4.4-.93 4.4h-1.88l1.87-8.79h1.88l1.6 5.97 4.18-5.97h1.88l-1.87 8.79zm-59.02-12.61l3.08-4.99h58.41l.92 4.99h-62.41z"/>
<path filter="url(#drop-shadow)" fill="#B51CCC" d="M35.64 141.85h3.77l1.12-5.28h-3.77zM93.56 139.84h2.14l-.5-2.68z"/>
</svg>
